<?xml version="1.0" standalone="no"?><!DOCTYPE svg PUBLIC "-//W3C//DTD SVG 1.1//EN" "http://www.w3.org/Graphics/SVG/1.1/DTD/svg11.dtd"><svg t="1742261571962" class="icon" viewBox="0 0 1024 1024" version="1.1" xmlns="http://www.w3.org/2000/svg" p-id="3727" xmlns:xlink="http://www.w3.org/1999/xlink" width="200" height="200"><path d="M896 0a128 128 0 0 1 128 128v768a128 128 0 0 1-128 128H128a128 128 0 0 1-128-128V128a128 128 0 0 1 128-128h768z m0 64H128a64 64 0 0 0-63.552 56.512L64 128v768a64 64 0 0 0 56.512 63.552L128 960h768a64 64 0 0 0 63.552-56.512L960 896V128a64 64 0 0 0-56.512-63.552L896 64z" p-id="3728"></path><path d="M254.72 844.8H435.2V446.208h-35.328L427.52 161.28H166.4v95.232h33.792L168.704 537.6h168.192v209.664H254.72V844.8z m-96-131.328l156.672-23.04V595.968l-156.672 23.04v94.464z m104.448-267.264l19.2-189.696h46.848l-19.2 189.696h-46.848zM450.56 852.48c79.872-29.952 154.368-69.888 207.36-117.504 53.76 47.616 128.256 87.552 208.128 117.504v-96c-56.064-21.504-102.912-46.848-140.544-76.8 43.008-55.296 72.96-118.272 83.712-192.768 18.432 7.68 37.632 14.592 56.832 21.504V411.648c-54.528-19.968-99.84-42.24-137.472-69.12 46.08-54.528 79.104-115.2 95.232-188.928H727.04c-11.52 52.992-33.792 96-69.12 138.24-35.328-42.24-57.6-85.248-68.352-138.24H492.8c15.36 72.96 49.152 134.4 94.464 188.16-36.864 26.88-82.176 49.92-136.704 69.888v96.768c19.2-6.912 38.4-13.824 56.832-21.504a395.52 395.52 0 0 0 83.712 192c-37.632 29.952-84.48 56.064-140.544 77.568v96z m85.248-378.624c46.848-21.504 88.32-46.848 122.112-75.264 33.792 28.416 76.032 53.76 122.88 75.264h-62.976a306.048 306.048 0 0 1-59.904 146.688 297.6 297.6 0 0 1-59.136-146.688h-62.976z" p-id="3729"></path></svg>