<?xml version="1.0" standalone="no"?><!DOCTYPE svg PUBLIC "-//W3C//DTD SVG 1.1//EN" "http://www.w3.org/Graphics/SVG/1.1/DTD/svg11.dtd"><svg t="1683713595275" class="icon" viewBox="0 0 1024 1024" version="1.1" xmlns="http://www.w3.org/2000/svg" p-id="17152" xmlns:xlink="http://www.w3.org/1999/xlink" width="200" height="200"><path d="M578.73990334 513.83817531l390.73008376-388.70337768c18.47601845-18.38175303 18.57028384-48.1696195 0.1885308-66.64563793-18.42888573-18.52315114-48.1696195-18.57028384-66.64563793-0.18853081l-390.82434916 388.75051037-387.43079477-388.60911226C106.4231157 40.06027396 76.58811653 39.96600857 58.1120981 58.34776161 39.68321236 76.72951463 39.63607965 106.5645138 58.01783269 125.04053223l387.33652938 388.51484687L54.8128091 902.02309326c-18.47601845 18.38175303-18.57028384 48.1696195-0.18853081 66.64563795 9.19087652 9.23800921 21.30398045 13.90414653 33.41708437 13.90414652 12.01883853 0 24.03767705-4.5718719 33.22855356-13.71561572l390.63581838-388.56197957 390.96574727 392.14406476c9.19087652 9.23800921 21.25684774 13.85701381 33.36995168 13.85701383 12.06597121 0 24.08480974-4.61900461 33.27568627-13.76274843 18.42888573-18.38175303 18.47601845-48.1696195 0.09426539-66.64563791L578.73990334 513.83817531z" fill="#272636" p-id="17153"></path></svg>