<?xml version="1.0" standalone="no"?><!DOCTYPE svg PUBLIC "-//W3C//DTD SVG 1.1//EN" "http://www.w3.org/Graphics/SVG/1.1/DTD/svg11.dtd"><svg t="1742261542363" class="icon" viewBox="0 0 1024 1024" version="1.1" xmlns="http://www.w3.org/2000/svg" p-id="2622" xmlns:xlink="http://www.w3.org/1999/xlink" width="200" height="200"><path d="M597.333333 213.333333a213.333333 213.333333 0 0 1 0 426.666667v85.333333a85.333333 85.333333 0 0 1-85.333333 85.333334H298.666667a85.333333 85.333333 0 0 1-85.333334-85.333334v-213.333333a85.333333 85.333333 0 0 1 85.333334-85.333333h85.333333a213.333333 213.333333 0 0 1 213.333333-213.333334z m-209.066666 256.042667L298.666667 469.333333a42.666667 42.666667 0 0 0-42.666667 42.666667v213.333333a42.666667 42.666667 0 0 0 42.666667 42.666667h213.333333a42.666667 42.666667 0 0 0 42.666667-42.666667v-89.6l-2.517334-0.512a213.632 213.632 0 0 1-163.370666-163.370666l-0.512-2.474667zM597.333333 512v85.333333a170.666667 170.666667 0 1 0-170.666666-170.666666h85.333333a85.333333 85.333333 0 0 1 85.333333 85.333333z" p-id="2623"></path></svg>