<?xml version="1.0" standalone="no"?><!DOCTYPE svg PUBLIC "-//W3C//DTD SVG 1.1//EN" "http://www.w3.org/Graphics/SVG/1.1/DTD/svg11.dtd"><svg t="1742261564139" class="icon" viewBox="0 0 1024 1024" version="1.1" xmlns="http://www.w3.org/2000/svg" p-id="3411" xmlns:xlink="http://www.w3.org/1999/xlink" width="200" height="200"><path d="M896 0a128 128 0 0 1 128 128v768a128 128 0 0 1-128 128H128a128 128 0 0 1-128-128V128a128 128 0 0 1 128-128h768z m0 64H128a64 64 0 0 0-63.552 56.512L64 128v768a64 64 0 0 0 56.512 63.552L128 960h768a64 64 0 0 0 63.552-56.512L960 896V128a64 64 0 0 0-56.512-63.552L896 64z" p-id="3412"></path><path d="M176.384 768h126.72V230.4h-126.72zM397.568 768h201.216c172.8 0 261.888-92.928 261.888-268.032 0-168.96-89.856-269.568-258.816-269.568H397.568V768z m126.72-95.232V325.632h79.104c69.888 0 126.72 76.8 126.72 175.104 0 69.888-26.112 123.648-65.28 151.296-19.2 13.824-39.936 20.736-61.44 20.736H524.288z" p-id="3413"></path></svg>