<?xml version="1.0" standalone="no"?><!DOCTYPE svg PUBLIC "-//W3C//DTD SVG 1.1//EN" "http://www.w3.org/Graphics/SVG/1.1/DTD/svg11.dtd"><svg t="1742261555789" class="icon" viewBox="0 0 1024 1024" version="1.1" xmlns="http://www.w3.org/2000/svg" p-id="3095" xmlns:xlink="http://www.w3.org/1999/xlink" width="200" height="200"><path d="M204.032 281.088v200.448h615.936V281.088h-172.8v-28.416h202.752V162.816H174.08v89.856h202.752v28.416h-172.8zM166.4 702.72h295.68v142.08h99.84v-142.08h295.68V619.776H166.4v82.944z m33.024 142.08h111.36c23.04-36.864 43.776-77.568 58.368-122.88h-103.68c-14.592 43.008-36.864 82.944-66.048 122.88z m28.416-253.44h568.32V509.184H227.84V591.36z m73.728-188.928v-43.008h79.104v43.008H301.568z m169.728-121.344v-28.416h81.408v28.416H471.296z m1.536 121.344v-43.008h78.336v43.008H472.832z m170.496 0v-43.008h79.104v43.008h-79.104z m11.52 319.488c14.592 45.312 35.328 86.016 58.368 122.88h111.36c-29.184-39.936-51.456-79.872-66.048-122.88h-103.68z" p-id="3096"></path><path d="M896 0a128 128 0 0 1 128 128v768a128 128 0 0 1-128 128H128a128 128 0 0 1-128-128V128a128 128 0 0 1 128-128h768z m0 64H128a64 64 0 0 0-63.552 56.512L64 128v768a64 64 0 0 0 56.512 63.552L128 960h768a64 64 0 0 0 63.552-56.512L960 896V128a64 64 0 0 0-56.512-63.552L896 64z" p-id="3097"></path></svg>