<?xml version="1.0" standalone="no"?><!DOCTYPE svg PUBLIC "-//W3C//DTD SVG 1.1//EN" "http://www.w3.org/Graphics/SVG/1.1/DTD/svg11.dtd"><svg t="1742261560411" class="icon" viewBox="0 0 1024 1024" version="1.1" xmlns="http://www.w3.org/2000/svg" p-id="3253" xmlns:xlink="http://www.w3.org/1999/xlink" width="200" height="200"><path d="M491.477333 219.52L240.981333 337.578667a48.170667 48.170667 0 0 0 1.194667 87.68l250.453333 109.781333c12.373333 5.418667 26.368 5.418667 38.698667 0l250.496-109.824a48.170667 48.170667 0 0 0 1.194667-87.68l-250.496-117.973333a48.170667 48.170667 0 0 0-41.045334 0z m-229.973333 161.621333L512 263.125333l250.496 117.973334L512 490.965333 261.504 381.141333z m500.949333 242.517334a24.064 24.064 0 0 1 20.437334 43.605333l-1.706667 0.768-260.181333 109.824a24.064 24.064 0 0 1-16.682667 0.768l-2.048-0.768-260.138667-109.781333a24.064 24.064 0 0 1 16.938667-45.056l1.792 0.682666 250.794667 105.813334 250.794666-105.813334z" p-id="3254"></path><path d="M757.162667 501.333333L516.266667 609.792l-240.725334-108.117333v38.912c0 9.514667 5.504 18.133333 13.909334 21.845333l201.898666 89.6a55.594667 55.594667 0 0 0 49.792 0l202.112-89.813333a23.808 23.808 0 0 0 13.909334-21.802667v-38.997333z" p-id="3255"></path></svg>