<?xml version="1.0" standalone="no"?><!DOCTYPE svg PUBLIC "-//W3C//DTD SVG 1.1//EN" "http://www.w3.org/Graphics/SVG/1.1/DTD/svg11.dtd"><svg t="1742261533628" class="icon" viewBox="0 0 1024 1024" version="1.1" xmlns="http://www.w3.org/2000/svg" p-id="2306" xmlns:xlink="http://www.w3.org/1999/xlink" width="200" height="200"><path d="M733.866667 213.333333H303.786667A47.786667 47.786667 0 0 0 256 261.12v501.76c0 26.410667 21.376 47.786667 47.786667 47.786667H733.866667a47.786667 47.786667 0 0 0 47.786666-47.786667V261.12A47.786667 47.786667 0 0 0 733.866667 213.333333zM303.786667 261.12H733.866667v501.76H303.786667V261.12z" p-id="2307"></path><path d="M626.346667 422.4a23.893333 23.893333 0 0 1 1.792 47.744l-1.792 0.042667H411.306667a23.893333 23.893333 0 0 1-1.792-47.744L411.306667 422.4h215.04zM650.24 535.893333v23.893334c0 13.226667-10.666667 23.893333-23.893333 23.893333H411.306667a23.893333 23.893333 0 0 1-23.893334-23.893333v-23.893334h262.826667z" p-id="2308"></path></svg>