<?xml version="1.0" standalone="no"?><!DOCTYPE svg PUBLIC "-//W3C//DTD SVG 1.1//EN" "http://www.w3.org/Graphics/SVG/1.1/DTD/svg11.dtd"><svg t="1742261568059" class="icon" viewBox="0 0 1024 1024" version="1.1" xmlns="http://www.w3.org/2000/svg" p-id="3569" xmlns:xlink="http://www.w3.org/1999/xlink" width="200" height="200"><path d="M896 0a128 128 0 0 1 128 128v768a128 128 0 0 1-128 128H128a128 128 0 0 1-128-128V128a128 128 0 0 1 128-128h768z m0 64H128a64 64 0 0 0-63.552 56.512L64 128v768a64 64 0 0 0 56.512 63.552L128 960h768a64 64 0 0 0 63.552-56.512L960 896V128a64 64 0 0 0-56.512-63.552L896 64z" p-id="3570"></path><path d="M219.392 534.528h630.528v-96H319.232V395.52h466.944V163.584H219.392v370.944z m-52.992 168.96h115.968c-14.592 47.616-42.24 92.928-89.088 141.312h129.792c33.024-47.616 52.992-92.928 62.976-141.312h250.368V844.8h99.84v-141.312H857.6v-96h-121.344v-59.904h-99.84v59.904H395.264v-59.904h-99.84v59.904H166.4v96z m152.832-398.592v-50.688h367.104v50.688H319.232z" p-id="3571"></path></svg>