<?xml version="1.0" standalone="no"?><!DOCTYPE svg PUBLIC "-//W3C//DTD SVG 1.1//EN" "http://www.w3.org/Graphics/SVG/1.1/DTD/svg11.dtd"><svg t="1742261538016" class="icon" viewBox="0 0 1024 1024" version="1.1" xmlns="http://www.w3.org/2000/svg" p-id="2464" xmlns:xlink="http://www.w3.org/1999/xlink" width="200" height="200"><path d="M896 0a128 128 0 0 1 128 128v768a128 128 0 0 1-128 128H128a128 128 0 0 1-128-128V128a128 128 0 0 1 128-128h768z m0 64H128a64 64 0 0 0-63.552 56.512L64 128v768a64 64 0 0 0 56.512 63.552L128 960h768a64 64 0 0 0 63.552-56.512L960 896V128a64 64 0 0 0-56.512-63.552L896 64z" p-id="2465"></path><path d="M171.776 749.568v99.072c139.008-19.2 250.368-52.992 340.224-99.84 89.856 46.848 201.216 80.64 340.224 99.84v-99.072c-96.768-15.36-175.872-36.864-241.152-65.28 93.696-73.728 155.136-169.728 197.376-284.928l-82.944-0.768H561.92V312.576h295.68V214.272H561.92V138.24H462.08v76.032H166.4v98.304h295.68v86.016H298.496l-82.944 0.768c42.24 115.2 103.68 211.2 197.376 284.928-65.28 28.416-144.384 49.92-241.152 65.28zM372.992 495.36h278.016A513.472 513.472 0 0 1 512 638.208 513.472 513.472 0 0 1 372.992 495.36z" p-id="2466"></path></svg>